<?xml version="1.0" encoding="UTF-8" standalone="no"?>
<svg
   id="svg395042"
   viewBox="0 0 761.69568 89.864067"
   height="89.864067"
   width="761.69568"
   version="1.1"
   sodipodi:docname="traileka_brand.svg"
   inkscape:version="1.3 (0e150ed6c4, 2023-07-21)"
   xmlns:inkscape="http://www.inkscape.org/namespaces/inkscape"
   xmlns:sodipodi="http://sodipodi.sourceforge.net/DTD/sodipodi-0.dtd"
   xmlns:xlink="http://www.w3.org/1999/xlink"
   xmlns="http://www.w3.org/2000/svg"
   xmlns:svg="http://www.w3.org/2000/svg"
   xmlns:rdf="http://www.w3.org/1999/02/22-rdf-syntax-ns#"
   xmlns:cc="http://creativecommons.org/ns#"
   xmlns:dc="http://purl.org/dc/elements/1.1/">
  <sodipodi:namedview
     id="namedview8"
     pagecolor="#505050"
     bordercolor="#ffffff"
     borderopacity="1"
     inkscape:showpageshadow="0"
     inkscape:pageopacity="0"
     inkscape:pagecheckerboard="1"
     inkscape:deskcolor="#505050"
     inkscape:zoom="1.0690104"
     inkscape:cx="304.48721"
     inkscape:cy="45.369062"
     inkscape:window-width="1920"
     inkscape:window-height="1017"
     inkscape:window-x="-8"
     inkscape:window-y="-8"
     inkscape:window-maximized="1"
     inkscape:current-layer="logo-center" />
  <metadata
     id="metadata395048">
    <rdf:rdf>
      <cc:work
         rdf:about="">
        <dc:format>image/svg+xml</dc:format>
        <dc:type
           rdf:resource="http://purl.org/dc/dcmitype/StillImage" />
      </cc:work>
    </rdf:rdf>
  </metadata>
  <defs
     id="defs395046" />
  <linearGradient
     spreadMethod="pad"
     y2="0.30000001"
     x2="-0.1"
     y1="1.2"
     x1="0.30000001"
     id="3d_gradient2-logo-1896c59d-e1f5-4026-b0ae-126ed5c44eeb">
    <stop
       id="stop395023"
       stop-opacity="1"
       stop-color="#ffffff"
       offset="0%" />
    <stop
       id="stop395025"
       stop-opacity="1"
       stop-color="#000000"
       offset="100%" />
  </linearGradient>
  <linearGradient
     gradientTransform="rotate(-30)"
     spreadMethod="pad"
     y2="0.30000001"
     x2="-0.1"
     y1="1.2"
     x1="0.30000001"
     id="3d_gradient3-logo-1896c59d-e1f5-4026-b0ae-126ed5c44eeb">
    <stop
       id="stop395028"
       stop-opacity="1"
       stop-color="#ffffff"
       offset="0%" />
    <stop
       id="stop395030"
       stop-opacity="1"
       stop-color="#cccccc"
       offset="50%" />
    <stop
       id="stop395032"
       stop-opacity="1"
       stop-color="#000000"
       offset="100%" />
  </linearGradient>
  <g
     id="logo-group"
     transform="translate(-208.3268,-339.072)">
    <image
       xlink:href=""
       id="container"
       x="272"
       y="144"
       width="480"
       height="480"
       style="display:none" />
    <g
       id="logo-center"
       transform="translate(69.5268)">
      <image
         xlink:href=""
         id="icon_container"
         x="0"
         y="0"
         style="display:none" />
      <g
         id="slogan"
         style="font-style:normal;font-weight:700;font-size:32px;line-height:1;font-family:'Brandmark1 Bold Color';font-variant-ligatures:none;text-align:center;text-anchor:middle" />
      <g
         id="title"
         style="font-style:normal;font-weight:700;font-size:72px;line-height:1;font-family:'Brandmark1 Bold Color';font-variant-ligatures:normal;text-align:center;text-anchor:middle">
        <g
           id="path395051"
           aria-label="T"
           transform="matrix(1.6,0,0,1.6,-412.74899,424.896)">
          <path
             class="c1"
             d="M 94.23975,82.64648 H 78.97412 v -10.729 h 42.05176 v 10.729 h -15.48145 v 45.43604 H 94.23975 Z"
             transform="translate(265.744,-125.55748)"
             stroke-width="0"
             stroke-linejoin="miter"
             stroke-miterlimit="2"
             fill="#70c3c5"
             stroke="#70c3c5"
             id="path1" />
        </g>
        <g
           id="path395053"
           aria-label="R"
           transform="matrix(1.6,0,0,1.6,-380.74899,424.896)">
          <path
             class="c1"
             d="M 121.90405,128.08252 H 108.24487 L 94.87378,108.80615 V 97.83984 h 2.16016 c 3.40527,0 5.9541,-0.74902 7.56738,-2.23242 1.38281,-1.27441 2.08105,-3.11084 2.08105,-5.47266 0,-2.4624 -0.71973,-4.33447 -2.13867,-5.55859 -1.4541,-1.26025 -3.75879,-1.92969 -6.64648,-1.92969 h -8.49609 v 45.43604 H 78.09595 V 71.91748 h 20.66553 c 3.16113,0 6.0127,0.45361 8.48926,1.34619 2.44141,0.88574 4.5293,2.21094 6.20703,3.93164 3.10352,3.18994 4.74512,7.71191 4.74512,13.0835 0,4.81738 -1.33203,8.79932 -3.95996,11.83789 -1.8291,2.10986 -4.24121,3.72266 -7.2002,4.81006 z"
             transform="translate(312.0013,-125.55748)"
             stroke-width="0"
             stroke-linejoin="miter"
             stroke-miterlimit="2"
             fill="#70c3c5"
             stroke="#70c3c5"
             id="path2" />
        </g>
        <g
           id="path395055"
           aria-label="A"
           transform="matrix(1.6,0,0,1.6,-348.74899,424.896)">
          <polygon
             class="c1"
             points="99.93921,89.14844 114.22534,128.08252 126.19214,128.08252 104.82788,71.91748 95.08569,71.91748 73.80786,128.08252 85.77515,128.08252 "
             transform="translate(356.86701,-125.55748)"
             stroke-width="0"
             stroke-linejoin="miter"
             stroke-miterlimit="2"
             fill="#70c3c5"
             stroke="#70c3c5"
             id="polygon2" />
          <polygon
             class="c3"
             points="91.09854,114.24284 108.90146,114.24284 100.03819,128.08252 "
             transform="translate(356.86701,-125.55748)"
             stroke-width="0"
             stroke-linejoin="miter"
             stroke-miterlimit="2"
             fill="#a48d70"
             stroke="#a48d70"
             id="polygon3" />
        </g>
        <g
           id="path395057"
           aria-label="I"
           transform="matrix(1.6,0,0,1.6,-316.74899,424.896)">
          <path
             class="c1"
             d="m 94.34741,75.51758 11.30518,-3.6001 v 56.16504 H 94.34741 Z"
             transform="translate(391.03171,-125.55748)"
             stroke-width="0"
             stroke-linejoin="miter"
             stroke-miterlimit="2"
             fill="#70c3c5"
             stroke="#70c3c5"
             id="path3" />
        </g>
        <g
           id="path395059"
           aria-label="L"
           transform="matrix(1.6,0,0,1.6,-284.74899,424.896)">
          <path
             class="c1"
             d="m 81.71045,75.51782 11.30469,-3.6001 v 45.43604 h 25.27441 v 10.72852 h -36.5791 z"
             transform="translate(422.99617,-125.55772)"
             stroke-width="0"
             stroke-linejoin="miter"
             stroke-miterlimit="2"
             fill="#70c3c5"
             stroke="#70c3c5"
             id="path4" />
        </g>
        <g
           id="path395061"
           aria-label="E"
           transform="matrix(1.6,0,0,1.6,-252.74899,424.896)">
          <path
             class="c1"
             d="m 81.8186,128.08252 h 36.36279 V 117.56885 H 81.8186 Z m 0,-22.61035 h 36.36279 v -10.729 H 81.8186 Z m 0,-33.55469 v 10.729 h 36.36279 v -10.729 z"
             transform="translate(462.96615,-125.55748)"
             stroke-width="0"
             stroke-linejoin="miter"
             stroke-miterlimit="2"
             fill="#70c3c5"
             stroke="#70c3c5"
             id="path5" />
        </g>
        <g
           id="path395063"
           aria-label="K"
           transform="matrix(1.6,0,0,1.6,-220.74899,424.896)">
          <polygon
             class="c1"
             points="77.17749,128.08252 88.48218,128.08252 88.48218,112.30518 122.80005,71.91748 108.10376,71.91748 88.48218,95.62207 88.48218,71.91748 77.17749,71.91748 "
             transform="translate(510.35726,-125.55748)"
             stroke-width="0"
             stroke-linejoin="miter"
             stroke-miterlimit="2"
             fill="#70c3c5"
             stroke="#70c3c5"
             id="polygon5" />
          <polygon
             class="c3"
             points="112.71143,114.24286 98.67279,114.24286 108.73071,128.08252 122.82251,128.08252 "
             transform="translate(510.35726,-125.55748)"
             stroke-width="0"
             stroke-linejoin="miter"
             stroke-miterlimit="2"
             fill="#a48d70"
             stroke="#a48d70"
             id="polygon6" />
        </g>
        <g
           id="path395065"
           aria-label="A"
           transform="matrix(1.6,0,0,1.6,-188.74899,424.896)">
          <polygon
             class="c1"
             points="99.93921,89.14844 114.22534,128.08252 126.19214,128.08252 104.82788,71.91748 95.08569,71.91748 73.80786,128.08252 85.77515,128.08252 "
             transform="translate(554.58577,-125.55748)"
             stroke-width="0"
             stroke-linejoin="miter"
             stroke-miterlimit="2"
             fill="#70c3c5"
             stroke="#70c3c5"
             id="polygon7" />
          <polygon
             class="c3"
             points="91.09854,114.24284 108.90146,114.24284 100.03819,128.08252 "
             transform="translate(554.58577,-125.55748)"
             stroke-width="0"
             stroke-linejoin="miter"
             stroke-miterlimit="2"
             fill="#a48d70"
             stroke="#a48d70"
             id="polygon8" />
        </g>
      </g>
    </g>
  </g>
</svg>
